<?xml version="1.0" encoding="utf-8"?>
<!-- Generator: Adobe Illustrator 15.0.0, SVG Export Plug-In . SVG Version: 6.00 Build 0)  -->
<!DOCTYPE svg PUBLIC "-//W3C//DTD SVG 1.1//EN" "http://www.w3.org/Graphics/SVG/1.1/DTD/svg11.dtd">
<svg version="1.1" id="Ebene_1" xmlns="http://www.w3.org/2000/svg" xmlns:xlink="http://www.w3.org/1999/xlink" x="0px" y="0px"
	 width="841.889px" height="595.281px" viewBox="0 0 841.889 595.281" enable-background="new 0 0 841.889 595.281"
	 xml:space="preserve">
<path fill="none" d="M543.8,467.594l228.512,63.059c26.203,9.014,46.68,28.665,58.148,54.061v80.264H11.429v-80.264
	c10.646-25.396,31.941-45.047,58.152-54.061l228.509-63.059V345.554H543.8V467.594z"/>
<path fill="none" d="M543.8,467.594l228.512,63.059c26.203,9.014,46.68,28.665,58.148,54.061v80.264H11.429v-80.264
	c10.646-25.396,31.941-45.047,58.152-54.061l228.509-63.059V345.554H543.8V467.594z"/>
<path fill="none" d="M543.8,467.594l228.512,63.059c26.203,9.014,46.68,28.665,58.148,54.061v80.264H11.429v-80.264
	c10.646-25.396,31.941-45.047,58.152-54.061l228.509-63.059V345.554H543.8V467.594z"/>
<path fill="none" stroke="#F5F5F5" stroke-width="13" d="M420.945,452.029c-12.286,0-28.667-2.456-39.312-7.376
	c-13.105-5.726-58.972-37.67-74.533-51.597c-20.476-18.837-31.125-41.768-34.401-81.903
	c-3.275-40.127-15.561-182.642-15.561-215.403c0-46.687,41.771-118.76,163.806-118.76l0,0l0,0l0,0l0,0
	c122.035,0,163.806,72.073,163.806,118.76c0,32.761-12.285,176.091-15.561,216.229c-3.277,40.127-13.105,63.059-34.402,81.901
	c-15.559,13.918-62.244,45.863-74.531,51.599C449.609,449.573,433.23,452.029,420.945,452.029L420.945,452.029z"/>
<path fill="#E1E1E1" d="M568.37,185.843c0,0,13.107,3.279,36.857-4.911c3.275-14.749,12.287-57.333,12.287-81.086
	c0-23.755-2.459-46.687-15.564-66.343c-14.742-21.295-45.865-33.581-62.244-33.581c-18.838,11.469-63.068,37.676-76.992,53.237
	c-7.367,8.189,3.277,14.741,3.277,14.741s9.83-4.095,13.926-4.911c20.475-5.735,51.596-2.455,68.797,13.102
	c19.656,18.02,19.656,60.611,20.477,72.081C568.37,158.816,568.37,185.843,568.37,185.843z"/>
<path fill="#E1E1E1" d="M236.662,181.747c23.752,8.191,36.857,27.852,36.857,27.852s0-42.591,0-51.605
	c0-13.102,0-53.236,19.657-79.44c26.21-35.221,68.797-43.411,90.913-28.67c11.465,7.371,49.961,45.051,90.912,13.921
	c24.57-18.836,69.619-61.423,69.619-61.423s-23.752-72.893-131.865-64.703c-45.867,4.095-96.645-7.374-96.645-7.374
	s-0.82,20.476,7.371,31.126c-67.982,18.835-90.093,67.977-96.648,105.653c-1.636,7.374-2.455,14.74-2.455,22.116
	c0,4.094,0,8.189,0,11.461C224.378,124.417,233.388,166.183,236.662,181.747z"/>
<path fill="#D2D2D2" d="M609.323,148.986c0-104.018-84.359-188.376-188.378-188.376c-104.019,0-188.377,84.358-188.377,188.376
	v65.524h24.571v-65.524c-0.82-90.093,72.893-164.625,163.806-163.805c90.912-0.82,164.626,73.712,163.806,163.805V222.7h24.572
	V148.986z"/>
<path fill="none" stroke="#DCDCDC" stroke-width="13" d="M584.751,272.617c-0.862,112.676-130.121,114.749-98.285,113.023"/>
<path fill="#DCDCDC" d="M440.563,369.746l48.047-10.967c9.113-2.05,17.889,3.262,19.121,12.34l3.395,15.727
	c2.049,9.113-3.261,17.89-12.337,19.124l-48.046,10.958c-9.104,2.058-17.887-3.26-19.122-12.332l-3.392-15.733
	C426.144,380.57,432.271,371.832,440.563,369.746z"/>
<g>
	<g>
		<defs>
			<path id="SVGID_1_" d="M262.991,320.982c-24.759,4.158-60.88-42.75-60.88-85.342c0-42.591,44.031-76.004,60.88-64.502
				C279.841,182.64,287.751,316.824,262.991,320.982z"/>
		</defs>
		<use xlink:href="#SVGID_1_"  overflow="visible" fill="#D2D2D2"/>
		<clipPath id="SVGID_2_">
			<use xlink:href="#SVGID_1_"  overflow="visible"/>
		</clipPath>
		<polygon clip-path="url(#SVGID_2_)" fill="#D2D2D2" points="202.111,153.738 248.012,157.177 248.012,320.982 202.111,317.543
			"/>
	</g>
</g>
<g>
	<path fill="#E1E1E1" d="M511.845,566.14c15.342-26.826,61.758-50.039,57.522-80.205c-0.587-3.469-0.877-6.939-1.301-11.078
		c4.363,1.201,7.719,2.137,11.236,3.07c46.449,11.746,90.618,9.648,136.774,21.793c30.356,7.875,61.985,31.996,88.436,48.414
		c10.229,6.406,20.424,12.945,26.581,23.891c4.231,7.34,7.719,14.814,10.813,22.424l-356.317,0.832
		C490.25,587.406,507.481,574.015,511.845,566.14z"/>
	<path fill="#E1E1E1" d="M6.508,582.97c4.396-8.676,9.933-17.752,17.523-24.025c11.205-23.875,29.121-40.748,63.745-50.225
		c42.768-11.746,117.819-15.844,160.879-26.789c8.632-2.135,17.23-4.27,26.45-6.674c-0.293,2.137-0.457,3.871-0.588,5.607
		c-2.637,23.223,17.949,65.775,44.203,78.275c31.725,13.5,52.41,21.326,61.171,36.141L1.263,594.449
		C2.858,590.578,4.618,586.707,6.508,582.97z"/>
</g>
<g>
	<g>
		<defs>
			<path id="SVGID_3_" d="M576.305,313.982c20.119,4.158,49.471-42.75,49.471-85.342c0-42.591-35.778-76.004-49.471-64.502
				S556.187,309.824,576.305,313.982z"/>
		</defs>
		<use xlink:href="#SVGID_3_"  overflow="visible" fill="#D2D2D2"/>
		<clipPath id="SVGID_4_">
			<use xlink:href="#SVGID_3_"  overflow="visible"/>
		</clipPath>
		<polygon clip-path="url(#SVGID_4_)" fill="#D2D2D2" points="625.776,146.738 588.478,150.177 588.478,313.982 625.776,310.543
			"/>
	</g>
</g>
</svg>
